<svg t="1699151900426" class="icon" viewBox="0 0 1024 1024" version="1.1"
    xmlns="http://www.w3.org/2000/svg" p-id="3669" width="20" height="20">
    <path
        d="M896 768l-80.896 0-131.072 0-155.648 0-159.744 0-141.312 0-100.352 0q-24.576 0-39.936-11.264t-20.992-28.672-0.512-38.4 22.528-41.472q37.888-40.96 79.872-86.016t86.016-91.136l86.016-92.16q44.032-46.08 83.968-89.088 18.432-19.456 44.032-28.672t52.736-8.704 53.248 11.776 45.568 31.744q70.656 73.728 147.456 159.744t160.768 184.32q19.456 23.552 26.624 46.592t2.56 40.96-20.48 29.184-40.448 11.264z"
        p-id="3670" fill="#3d3d3d"></path>
</svg>