<svg xmlns="http://www.w3.org/2000/svg" xmlns:xlink="http://www.w3.org/1999/xlink" fill="none"
    version="1.1" width="32" height="32" viewBox="0 0 32 32">
    <defs>
        <clipPath id="master_svg0_sa38_2118">
            <rect x="0" y="0" width="32" height="32" rx="0" />
        </clipPath>
    </defs>
    <g clip-path="url(#master_svg0_sa38_2118)">
        <g>
            <path
                d="M19.7537,16.057315234375L31.0601,27.361515234375C32.1025,28.405715234375,32.101,30.097215234375,31.0568,31.139515234375C30.0126,32.181915234375,28.3212,32.180415234375,27.2788,31.136215234375L15.9724,19.829815234375L4.59103,31.211115234375C3.54077,32.261415234375,1.83796,32.261415234375,0.787696,31.211115234375C-0.262566,30.160915234375,-0.262565,28.458115234375,0.787697,27.407815234375L12.1713,16.024315234375L0.864821,4.717835234375C-0.129925,3.668405234375,-0.107845,2.017605234375,0.914614,0.995149234375C1.93707,-0.027309465625,3.58787,-0.049389165625,4.6373,0.945357234375L15.9437,12.251815234375L27.4022,0.793311234375C28.4525,-0.256949765625,30.1553,-0.256949765625,31.2055,0.793310234375C32.2558,1.843575234375,32.2558,3.546385234375,31.2055,4.596645234375L19.7537,16.057315234375Z"
                fill="#3D3D3D" fill-opacity="1" />
        </g>
    </g>
</svg>