<svg xmlns="http://www.w3.org/2000/svg" xmlns:xlink="http://www.w3.org/1999/xlink" fill="none"
    version="1.1" width="32" height="32" viewBox="0 0 32 32">
    <defs>
        <clipPath id="master_svg0_38_1623">
            <rect x="0" y="0" width="32" height="32" rx="0" />
        </clipPath>
    </defs>
    <g clip-path="url(#master_svg0_38_1623)">
        <g>
            <path
                d="M10.4690059765625,28.644555859375C9.3466759765625,29.341955859375,7.8790059765625,28.981255859375,7.1973359765625,27.845955859375C6.8741859765625,27.306855859375,6.7737559765625,26.663155859375,6.9173359765625,26.051255859375L8.3700059765625,19.856255859375C8.4052559765625,19.709355859375,8.3569859765625,19.554955859375,8.2443359765625,19.454255859375L3.4893379765625,15.310955859375C2.5016709765625,14.450955859375,2.3876709765625,12.946925859375,3.2320049765625,11.944255859375C3.6377969765625,11.461085859375,4.2198359765625,11.160105859375,4.8486759765625,11.108255859375L11.0890059765625,10.599925859375C11.2250059765625,10.588595859375001,11.3466759765625,10.498925859375,11.4023359765625,10.362595859375L13.8066259765625,4.482255859375C14.3076259765625,3.257257859375,15.7010259765625,2.672257859375,16.9166259765625,3.186590859375C17.4964259765625,3.432983859375,17.9551259765625,3.898780859375,18.1926259765625,4.482255859375L20.5970259765625,10.362255859375C20.6526259765625,10.498925859375,20.7743259765625,10.588925859375,20.9103259765625,10.599925859375L27.1513259765625,11.108595859375C28.4600259765625,11.215255859375,29.4290259765625,12.372925859375,29.3253259765625,13.687255859375C29.2766259765625,14.314455859375,28.9840259765625,14.897655859375,28.5103259765625,15.311555859375L23.7553259765625,19.454955859375C23.6446259765625,19.551255859375,23.5946259765625,19.707255859375,23.6296259765625,19.856555859375L25.0823259765625,26.051555859375C25.3830259765625,27.333255859375,24.6023259765625,28.624555859375,23.3280259765625,28.933555859375C22.7143259765625,29.082555859375,22.0665259765625,28.978555859375,21.5303259765625,28.644955859375L16.187325976562498,25.324955859375C16.0726259765625,25.252855859375,15.9267259765625,25.252855859375,15.8120259765625,25.324955859375L10.4686659765625,28.644955859375L10.4690059765625,28.644555859375ZM17.243325976562502,23.625955859375L22.5863259765625,26.945955859375C22.6683259765625,26.996555859375,22.7650259765625,27.012255859375,22.8566259765625,26.989955859375C23.0570259765625,26.941255859375,23.1866259765625,26.726555859375,23.1356259765625,26.507955859375L21.6830259765625,20.312955859375C21.4784259765625,19.444455859375,21.7703259765625,18.533955859375,22.4416259765625,17.946255859375L27.1966259765625,13.803255859375C27.2743259765625,13.735555859375,27.3233259765625,13.637255859375,27.3320259765625,13.529955859375C27.3496259765625,13.306955859375,27.1916259765625,13.118255859375,26.9890259765625,13.101955859375L20.7480259765625,12.592925859375C19.8562259765625,12.518065859375,19.0823259765625,11.948235859375,18.7460259765625,11.118925859375L16.3416259765625,5.238925859375C16.3041259765625,5.144455859375,16.2306259765625,5.068715859375001,16.1373259765625,5.028255859375C15.9530259765625,4.950255859375,15.7396259765625,5.039925859375,15.6583259765625,5.238925859375L13.2536259765625,11.118925859375C12.9174259765625,11.948235859375,12.1434359765625,12.518065859375,11.2516659765625,12.592925859375L5.0110059765625,13.101955859375C4.9137659765625,13.110355859375,4.8239659765625,13.157455859375,4.7616659765625,13.232555859375C4.6203759765625,13.403255859375,4.6387459765625,13.654955859375,4.8033359765625,13.803255859375L9.5583359765625,17.946555859375C10.2297359765625,18.534255859375,10.5215959765625,19.444755859375,10.3170059765625,20.313255859375L8.8643359765625,26.507955859375C8.8395059765625,26.613055859375,8.8564759765625,26.723755859375,8.911675976562499,26.816555859375C9.0206759765625,26.997555859375,9.2423359765625,27.051955859375,9.4136759765625,26.945555859375L14.7570259765625,23.625955859375C15.5181259765625,23.152255859375,16.4822259765625,23.152255859375,17.243325976562502,23.625955859375Z"
                fill="#3d3d3d" fill-opacity="1" />
        </g>
    </g>
</svg>