<svg xmlns="http://www.w3.org/2000/svg" xmlns:xlink="http://www.w3.org/1999/xlink" fill="none" version="1.1" width="32" height="32" viewBox="0 0 32 32"><defs><clipPath id="master_svg0_38_1660"><rect x="0" y="0" width="32" height="32" rx="0"/></clipPath></defs><g clip-path="url(#master_svg0_38_1660)"><g><path d="M5.76001263671875,27.864512109375C5.36616263671875,27.864512109375,4.97232263671875,27.790712109375,4.57847263671875,27.618412109375C3.42154863671875,27.150712109375,2.70770263671875,26.067612109375,2.70770263671875,24.836812109375L2.70770263671875,16.221412109375002C2.70770263671875,9.575292109374999,8.12309263671875,4.159912109375,14.76920263671875,4.159912109375L17.23080263671875,4.159912109375C23.87690263671875,4.159912109375,29.29230263671875,9.575292109374999,29.29230263671875,16.221412109375002C29.29230263671875,21.513712109375,24.98460263671875,25.821412109375,19.69230263671875,25.821412109375L9.03385263671875,25.821412109375L7.87693263671875,26.978412109375C7.28616263671875,27.544512109375,6.52308263671875,27.864512109375,5.76001263671875,27.864512109375ZM14.76920263671875,6.1045321093750005C9.20616263671875,6.1045321093750005,4.67693263671875,10.633762109374999,4.67693263671875,16.196812109375L4.67693263671875,24.812212109375C4.67693263671875,25.476812109375,5.169242636718749,25.723012109375,5.31693263671875,25.796812109375C5.46462263671875,25.870712109375,6.00616263671875,26.043012109375,6.47385263671875,25.575312109375L7.92616263671875,24.123012109375C8.123082636718749,23.926112109375,8.369242636718749,23.827612109375,8.615392636718749,23.827612109375L19.69230263671875,23.827612109375C23.90150263671875,23.827612109375,27.32310263671875,20.406112109375,27.32310263671875,16.196812109375C27.32310263671875,10.633762109374999,22.79390263671875,6.1045321093750005,17.23080263671875,6.1045321093750005L14.76920263671875,6.1045321093750005Z" fill="#3d3d3d" fill-opacity="1"/></g><g><path d="M11.889209414062499,15.99995859375Q11.889209414062499,16.09065859375,11.8803194140625,16.18091859375Q11.8714294140625,16.27117859375,11.8537294140625,16.360128593749998Q11.8360394140625,16.44907859375,11.8097094140625,16.53586859375Q11.7833894140625,16.62265859375,11.7486794140625,16.70645859375Q11.7139694140625,16.79024859375,11.6712194140625,16.87022859375Q11.628459414062501,16.95021859375,11.578069414062501,17.02562859375Q11.5276894140625,17.10103859375,11.4701494140625,17.17114859375Q11.4126094140625,17.24125859375,11.3484794140625,17.30538859375Q11.2843494140625,17.36951859375,11.2142394140625,17.42705859375Q11.1441294140625,17.48459859375,11.0687194140625,17.53497859375Q10.9933094140625,17.58536859375,10.9133194140625,17.62812859375Q10.8333394140625,17.67087859375,10.7495494140625,17.70558859375Q10.6657494140625,17.74029859375,10.5789594140625,17.76661859375Q10.4921694140625,17.79294859375,10.4032194140625,17.81063859375Q10.314269414062501,17.82833859375,10.2240094140625,17.837228593749998Q10.1337494140625,17.84611859375,10.0430494140625,17.84611859375Q9.9523594140625,17.84611859375,9.8620994140625,17.837228593749998Q9.7718394140625,17.82833859375,9.6828894140625,17.81063859375Q9.5939294140625,17.79294859375,9.5071394140625,17.76661859375Q9.4203494140625,17.74029859375,9.3365594140625,17.70558859375Q9.2527694140625,17.67087859375,9.1727824140625,17.62812859375Q9.0927954140625,17.58536859375,9.0173854140625,17.53497859375Q8.9419744140625,17.48459859375,8.8718654140625,17.42705859375Q8.8017574140625,17.36951859375,8.7376254140625,17.30538859375Q8.6734934140625,17.24125859375,8.6159574140625,17.17114859375Q8.5584204140625,17.10103859375,8.5080324140625,17.02562859375Q8.4576444140625,16.95021859375,8.4148914140625,16.87022859375Q8.3721374140625,16.79024859375,8.3374294140625,16.70645859375Q8.3027214140625,16.62265859375,8.2763941140625,16.53586859375Q8.2500666140625,16.44907859375,8.2323727140625,16.360128593749998Q8.2146789140625,16.27117859375,8.2057891440625,16.18091859375Q8.1968994140625,16.09065859375,8.1968994140625,15.99995859375Q8.1968994140625,15.90926859375,8.2057891440625,15.81900859375Q8.2146789140625,15.72874859375,8.2323727140625,15.63979859375Q8.2500666140625,15.55083859375,8.2763942140625,15.46404859375Q8.3027214140625,15.37725859375,8.3374294140625,15.29346859375Q8.3721374140625,15.20967859375,8.4148904140625,15.12969159375Q8.4576444140625,15.04970559375,8.5080324140625,14.97429459375Q8.5584204140625,14.89888359375,8.6159574140625,14.82877459375Q8.6734934140625,14.75866659375,8.7376254140625,14.69453459375Q8.8017574140625,14.63040259375,8.8718654140625,14.57286659375Q8.9419744140625,14.51532959375,9.0173854140625,14.46494159375Q9.0927954140625,14.41455359375,9.1727824140625,14.37180059375Q9.2527694140625,14.32904659375,9.3365594140625,14.29433859375Q9.4203494140625,14.25963059375,9.5071394140625,14.23330339375Q9.5939294140625,14.20697579375,9.6828894140625,14.18928189375Q9.7718394140625,14.17158809375,9.8620994140625,14.16269833375Q9.9523594140625,14.15380859375,10.0430494140625,14.15380859375Q10.1337494140625,14.15380859375,10.2240094140625,14.16269833375Q10.314269414062501,14.17158809375,10.4032194140625,14.18928189375Q10.4921694140625,14.20697579375,10.5789594140625,14.23330339375Q10.6657494140625,14.25963059375,10.7495494140625,14.29433859375Q10.8333394140625,14.32904659375,10.9133194140625,14.37180059375Q10.9933094140625,14.41455359375,11.0687194140625,14.46494159375Q11.1441294140625,14.51532959375,11.2142394140625,14.57286659375Q11.2843494140625,14.63040259375,11.3484794140625,14.69453459375Q11.4126094140625,14.75866659375,11.4701494140625,14.82877459375Q11.5276894140625,14.89888359375,11.578069414062501,14.97429459375Q11.628459414062501,15.04970559375,11.6712194140625,15.12969159375Q11.7139694140625,15.20967859375,11.7486794140625,15.29346859375Q11.7833894140625,15.37725859375,11.8097094140625,15.46404859375Q11.8360394140625,15.55083859375,11.8537294140625,15.63979859375Q11.8714294140625,15.72874859375,11.8803194140625,15.81900859375Q11.889209414062499,15.90926859375,11.889209414062499,15.99995859375Z" fill="#3d3d3d" fill-opacity="1"/></g><g><path d="M18.04377904296875,16.000017890625Q18.04377904296875,16.090777890625,18.03488904296875,16.181097890625Q18.02599904296875,16.271417890625,18.00829904296875,16.360427890625Q17.99059904296875,16.449447890625,17.96425904296875,16.536297890625Q17.93791904296875,16.623147890625,17.90319904296875,16.706997890625Q17.86847904296875,16.790847890625,17.82570904296875,16.870887890625Q17.78293904296875,16.950927890625,17.73252904296875,17.026387890625Q17.68211904296875,17.101857890625,17.62456904296875,17.172017890625Q17.56700904296875,17.242167890625,17.50284904296875,17.306347890625Q17.43868904296875,17.370517890625,17.36855904296875,17.428097890625Q17.29841904296875,17.485677890625,17.22297904296875,17.536097890625Q17.14753904296875,17.586517890625,17.06752904296875,17.629307890625Q16.98750904296875,17.672087890625,16.90368904296875,17.706817890625Q16.81985904296875,17.741547890625,16.73303904296875,17.767897890625Q16.64621904296875,17.794237890625,16.55722904296875,17.811947890625Q16.46823904296875,17.829657890625,16.37794904296875,17.838547890625Q16.28765904296875,17.847447890625,16.19692904296875,17.847447890625Q16.10618904296875,17.847447890625,16.01589904296875,17.838547890625Q15.92560904296875,17.829657890625,15.83661904296875,17.811947890625Q15.74762904296875,17.794237890625,15.66080904296875,17.767897890625Q15.57398904296875,17.741547890625,15.49015904296875,17.706817890625Q15.40633904296875,17.672087890625,15.32632104296875,17.629307890625Q15.24630404296875,17.586517890625,15.17086504296875,17.536097890625Q15.095425042968749,17.485677890625,15.02529004296875,17.428097890625Q14.95515404296875,17.370517890625,14.89099804296875,17.306347890625Q14.82684204296875,17.242167890625,14.76928404296875,17.172017890625Q14.71172504296875,17.101857890625,14.66131804296875,17.026397890625Q14.61091104296875,16.950927890625,14.56814104296875,16.870887890625Q14.52537104296875,16.790847890625,14.49065004296875,16.706997890625Q14.45592904296875,16.623147890625,14.42959124296875,16.536297890625Q14.40325364296875,16.449447890625,14.38555304296875,16.360427890625Q14.36785244296875,16.271417890625,14.35895931296875,16.181097890625Q14.35006618496875,16.090777890625,14.35006618496875,16.000017890625Q14.35006618496875,15.909257890625,14.35895931296875,15.818937890625Q14.36785244296875,15.728617890625,14.38555304296875,15.639597890625Q14.40325364296875,15.550587890625,14.42959124296875,15.463737890625Q14.45592904296875,15.376887890625,14.49065004296875,15.293037890625Q14.52537104296875,15.209187890625,14.56814104296875,15.129144890625Q14.61091104296875,15.049102890625,14.66131804296875,14.973639890625Q14.71172504296875,14.898176890625,14.76928404296875,14.828019890625Q14.82684204296875,14.757862890625,14.89099804296875,14.693686890624999Q14.95515404296875,14.629510890625,15.02529004296875,14.571934890625Q15.095425042968749,14.514358890625,15.17086504296875,14.463935890625Q15.24630404296875,14.413512890625,15.32632104296875,14.370729890625Q15.40633904296875,14.327946890625,15.49015904296875,14.293214890625Q15.57398904296875,14.258482890625,15.66080904296875,14.232137590625Q15.74762904296875,14.205791790625,15.83661904296875,14.188085690625Q15.92560904296875,14.170379590625,16.01589904296875,14.161483760625Q16.10618904296875,14.152587890625,16.19692904296875,14.152587890625Q16.28765904296875,14.152587890625,16.37794904296875,14.161483760625Q16.46823904296875,14.170379590625,16.55722904296875,14.188085690625Q16.64621904296875,14.205791790625,16.73303904296875,14.232137490625Q16.81985904296875,14.258482890625,16.90368904296875,14.293214890625Q16.98750904296875,14.327946890625,17.06752904296875,14.370729890625Q17.14753904296875,14.413512890625,17.22297904296875,14.463935890625Q17.29841904296875,14.514358890625,17.36855904296875,14.571934890625Q17.43868904296875,14.629510890625,17.50284904296875,14.693686890624999Q17.56700904296875,14.757862890625,17.62456904296875,14.828019890625Q17.68211904296875,14.898176890625,17.73252904296875,14.973639890625Q17.78293904296875,15.049102890625,17.82570904296875,15.129144890625Q17.86847904296875,15.209187890625,17.90319904296875,15.293037890625Q17.93791904296875,15.376887890625,17.96425904296875,15.463737890625Q17.99059904296875,15.550587890625,18.00829904296875,15.639597890625Q18.02599904296875,15.728617890625,18.03488904296875,15.818937890625Q18.04377904296875,15.909257890625,18.04377904296875,16.000017890625Z" fill="#3d3d3d" fill-opacity="1"/></g><g><path d="M24.196948671875,15.99995859375Q24.196948671875,16.09065859375,24.188058671874998,16.18091859375Q24.179168671875,16.27117859375,24.161468671875,16.360128593749998Q24.143778671875,16.44907859375,24.117448671875,16.53586859375Q24.091128671875,16.62265859375,24.056418671875,16.70645859375Q24.021708671875,16.79024859375,23.978958671875,16.87022859375Q23.936198671875,16.95021859375,23.885808671875,17.02562859375Q23.835428671875,17.10103859375,23.777888671875,17.17114859375Q23.720348671875,17.24125859375,23.656218671875,17.30538859375Q23.592088671875,17.36951859375,23.521978671875,17.42705859375Q23.451868671875,17.48459859375,23.376458671875,17.53497859375Q23.301048671875,17.58536859375,23.221058671875,17.62812859375Q23.141078671875,17.67087859375,23.057288671875,17.70558859375Q22.973488671875,17.74029859375,22.886698671875,17.76661859375Q22.799908671875,17.79294859375,22.710958671874998,17.81063859375Q22.622008671875,17.82833859375,22.531748671875,17.837228593749998Q22.441488671875,17.84611859375,22.350788671875,17.84611859375Q22.260098671875,17.84611859375,22.169838671875,17.837228593749998Q22.079578671875,17.82833859375,21.990628671875,17.81063859375Q21.901668671875,17.79294859375,21.814878671875,17.76661859375Q21.728088671875,17.74029859375,21.644298671875,17.70558859375Q21.560508671875,17.67087859375,21.480521671875,17.62812859375Q21.400534671875,17.58536859375,21.325124671875,17.53497859375Q21.249713671875,17.48459859375,21.179604671875,17.42705859375Q21.109496671875,17.36951859375,21.045364671875,17.30538859375Q20.981232671875,17.24125859375,20.923696671875,17.17114859375Q20.866159671875,17.10103859375,20.815771671875,17.02562859375Q20.765383671875,16.95021859375,20.722630671875,16.87022859375Q20.679876671875,16.79024859375,20.645168671875,16.70645859375Q20.610460671875,16.62265859375,20.584133371875,16.53586859375Q20.557805871875,16.44907859375,20.540111971875,16.360128593749998Q20.522418171875,16.27117859375,20.513528401875,16.18091859375Q20.504638671875,16.09065859375,20.504638671875,15.99995859375Q20.504638671875,15.90926859375,20.513528401875,15.81900859375Q20.522418171875,15.72874859375,20.540111971875,15.63979859375Q20.557805871875,15.55083859375,20.584133471875,15.46404859375Q20.610460671875,15.37725859375,20.645168671875,15.29346859375Q20.679876671875,15.20967859375,20.722629671875,15.12969159375Q20.765383671875,15.04970559375,20.815771671875,14.97429459375Q20.866159671875,14.89888359375,20.923696671875,14.82877459375Q20.981232671875,14.75866659375,21.045364671875,14.69453459375Q21.109496671875,14.63040259375,21.179604671875,14.57286659375Q21.249713671875,14.51532959375,21.325124671875,14.46494159375Q21.400534671875,14.41455359375,21.480521671875,14.37180059375Q21.560508671875,14.32904659375,21.644298671875,14.29433859375Q21.728088671875,14.25963059375,21.814878671875,14.23330339375Q21.901668671875,14.20697579375,21.990628671875,14.18928189375Q22.079578671875,14.17158809375,22.169838671875,14.16269833375Q22.260098671875,14.15380859375,22.350788671875,14.15380859375Q22.441488671875,14.15380859375,22.531748671875,14.16269833375Q22.622008671875,14.17158809375,22.710958671874998,14.18928189375Q22.799908671875,14.20697579375,22.886698671875,14.23330339375Q22.973488671875,14.25963059375,23.057288671875,14.29433859375Q23.141078671875,14.32904659375,23.221058671875,14.37180059375Q23.301048671875,14.41455359375,23.376458671875,14.46494159375Q23.451868671875,14.51532959375,23.521978671875,14.57286659375Q23.592088671875,14.63040259375,23.656218671875,14.69453459375Q23.720348671875,14.75866659375,23.777888671875,14.82877459375Q23.835428671875,14.89888359375,23.885808671875,14.97429459375Q23.936198671875,15.04970559375,23.978958671875,15.12969159375Q24.021708671875,15.20967859375,24.056418671875,15.29346859375Q24.091128671875,15.37725859375,24.117448671875,15.46404859375Q24.143778671875,15.55083859375,24.161468671875,15.63979859375Q24.179168671875,15.72874859375,24.188058671874998,15.81900859375Q24.196948671875,15.90926859375,24.196948671875,15.99995859375Z" fill="#3d3d3d" fill-opacity="1"/></g></g></svg>