<svg t="1699085267729" class="icon" viewBox="0 0 1024 1024" version="1.1"
    xmlns="http://www.w3.org/2000/svg" p-id="19462" width="16" height="16">
    <path
        d="M816 808h-144c-4.8 0-8 1.6-11.2 4.8l-80 80c-36.8 36.8-97.6 36.8-136 0l-80-80c-3.2-3.2-6.4-4.8-11.2-4.8h-144c-70.4 0-128-57.6-128-128v-448c0-70.4 57.6-128 128-128h608c70.4 0 128 57.6 128 128v448c-1.6 70.4-59.2 128-129.6 128z m0-64c35.2 0 64-28.8 64-64v-448c0-35.2-28.8-64-64-64H208c-35.2 0-64 28.8-64 64v448c0 35.2 28.8 64 64 64h144c20.8 0 41.6 8 56 24l80 80c12.8 12.8 32 12.8 44.8 0l80-80c14.4-14.4 35.2-24 56-24H816z m-496-336c27.2 0 48 20.8 48 48v32c0 27.2-20.8 48-48 48s-48-20.8-48-48v-32c0-27.2 20.8-48 48-48z m192 0c27.2 0 48 20.8 48 48v32c0 27.2-20.8 48-48 48s-48-20.8-48-48v-32c0-27.2 20.8-48 48-48z m192 0c27.2 0 48 20.8 48 48v32c0 27.2-20.8 48-48 48s-48-20.8-48-48v-32c0-27.2 20.8-48 48-48z"
        fill="#3d3d3d" p-id="19463"></path>
</svg>