<svg xmlns="http://www.w3.org/2000/svg" xmlns:xlink="http://www.w3.org/1999/xlink" fill="none" version="1.1" width="32" height="32" viewBox="0 0 32 32"><defs><clipPath id="master_svg0_38_02046"><rect x="0" y="0" width="32" height="32" rx="0"/></clipPath></defs><g clip-path="url(#master_svg0_38_02046)"><g><path d="M29.6904,15.2429L24.0724,9.83422C23.623,9.40137,22.9488,9.40137,22.4994,9.83422C22.05,10.26678,22.05,10.9159,22.4994,11.34875L26.2072,14.9184L15.4207,14.9184C14.7465,14.9184,14.2971,15.3509,14.2971,16.0001C14.2971,16.6492,14.7465,17.081699999999998,15.4207,17.081699999999998L26.2072,17.081699999999998L22.4997,20.6514C22.0502,21.0842,22.0502,21.7333,22.4997,22.1659C22.7244,22.3825,22.9491,22.4905,23.2861,22.4905C23.6233,22.4905,23.848,22.3822,24.0727,22.1659L29.6907,16.6492Q29.6907,16.5409,29.8032,16.5409C30.1401,16.2163,30.1401,15.5675,29.6907,15.2429L29.6904,15.2429ZM26.6566,23.5721C25.9824,23.5721,25.533,24.005,25.533,24.6538L25.533,26.8175C25.533,27.4663,25.0835,27.8992,24.4094,27.8992L5.30828,27.8992C4.634119999999999,27.8992,4.18469,27.4663,4.18469,26.8175L4.18469,5.1825600000000005C4.18469,4.533720000000001,4.634119999999999,4.1008700000000005,5.30828,4.1008700000000005L24.4094,4.1008700000000005C25.0835,4.1008700000000005,25.533,4.533720000000001,25.533,5.1825600000000005L25.533,7.34622C25.533,7.99509,25.9824,8.42791,26.6566,8.42791C27.3307,8.42791,27.7802,7.99506,27.7802,7.34622L27.7802,5.1825600000000005C27.7802,3.34375,26.3197,1.9375,24.4094,1.9375L5.30828,1.9375C3.39831,1.9375,1.9375,3.34375,1.9375,5.1825600000000005L1.9375,26.8175C1.937499761581,28.6563,3.39834,30.0625,5.30828,30.0625L24.4094,30.0625C26.3196,30.0625,27.7802,28.6563,27.7802,26.8175L27.7802,24.6538C27.7802,24.0049,27.3307,23.5721,26.6566,23.5721Z" fill="#3D3D3D" fill-opacity="1"/></g></g></svg>