<svg xmlns="http://www.w3.org/2000/svg" xmlns:xlink="http://www.w3.org/1999/xlink" fill="none" version="1.1" width="32" height="32" viewBox="0 0 32 32"><defs><clipPath id="master_svg0_152_2191"><rect x="0" y="0" width="32" height="32" rx="0"/></clipPath></defs><g clip-path="url(#master_svg0_152_2191)"><g><path d="M19.427335876464845,12.750748046875C19.946635876464843,10.430748046875,20.309335876464843,8.752748046875,20.516035876464844,7.713418046875C21.036035876464844,5.096748046875,19.685635876464843,2.666748046875,17.009335876464846,2.666748046875C14.596035876464844,2.666748046875,13.384035876464845,3.866078046875,12.669335876464844,6.263418046875L12.651005876464843,6.333418046875C12.222005876464843,8.272748046875,11.566005876464844,9.776078046875,10.697665876464843,10.851748046875C9.783095876464845,11.987558046875,8.413885876464843,12.661858046875,6.956005876464843,12.694448046875L6.271335876464844,12.709048046875C4.638665876464843,12.744048046875,3.3333358764648438,14.088048046875,3.3333358764648438,15.734448046875L3.3333358764648438,25.666748046875C3.3333358764648438,27.691748046875,4.961665876464844,29.333448046875,6.970665876464844,29.333448046875L19.862035876464844,29.333448046875C22.510035876464844,29.333448046875,24.873635876464842,27.659448046875,25.772035876464845,25.148448046875L28.450035876464845,17.661448046875C29.131335876464842,15.756448046875,28.152035876464844,13.655048046875,26.262335876464842,12.968048046875C25.866935876464844,12.824348046875,25.449335876464843,12.750748046875,25.028335876464844,12.750748046875L19.427335876464845,12.750748046875ZM17.008035876464845,4.666748046875C18.234635876464843,4.666748046875,18.867335876464843,5.806748046875001,18.567035876464843,7.320748046875C18.330335876464844,8.512748046875,17.880035876464845,10.584078046875,17.216335876464843,13.529048046875C17.075335876464845,14.154748046875,17.546335876464845,14.750748046875,18.182335876464844,14.750748046875L25.015635876464845,14.750748046875C25.206335876464845,14.750748046875,25.395635876464844,14.784048046875,25.575335876464845,14.849748046875C26.433035876464842,15.161748046875,26.877635876464844,16.117048046875,26.568335876464843,16.983048046875L23.894335876464844,24.469748046875C23.280635876464842,26.188448046875,21.665635876464844,27.333448046875,19.856335876464843,27.333448046875L6.9843358764648436,27.333448046875C6.072335876464844,27.333448046875,5.333335876464844,26.587048046875,5.333335876464844,25.666748046875L5.333335876464844,15.734448046875C5.333335876464844,15.176048046875,5.775335876464844,14.720448046875,6.328005876464844,14.708748046875L7.011335876464844,14.694048046875C9.050185876464845,14.648048046875,10.964595876464845,13.703848046875,12.242005876464845,12.114078046875C13.315335876464843,10.782748046875,14.090335876464843,9.010748046875001,14.581635876464844,6.805418046875C15.065635876464844,5.1980780468750005,15.611035876464843,4.666748046875,17.008335876464844,4.666748046875L17.008035876464845,4.666748046875Z" fill="#3D3D3D" fill-opacity="1"/></g></g></svg>