<svg xmlns="http://www.w3.org/2000/svg" xmlns:xlink="http://www.w3.org/1999/xlink" fill="none" version="1.1" width="32" height="32" viewBox="0 0 32 32"><defs><clipPath id="master_svg0_38_02030"><rect x="0" y="0" width="32" height="32" rx="0"/></clipPath></defs><g clip-path="url(#master_svg0_38_02030)"><g><path d="M24.90313,10.776342890625C24.458750000000002,10.776382890625001,24.09678,10.419432890625,24.09063,9.975092890625C24.09063,9.916972890625,24.07125,8.556342890625,24.075,8.084472890625C24.07718,7.9715028906250005,24.03369,7.862442890625,23.95438,7.781972890625C23.88292,7.708382890625,23.78444,7.667272890625,23.68188,7.668222890625L17.0625,7.668222890625C16.61377,7.668222890625,16.25,7.304452890625,16.25,6.855721890625C16.25,6.406990890625,16.613768,6.043221950535,17.0625,6.043221473695L23.68188,6.043221473695C24.21785,6.041651250625,24.73189,6.255873890625,25.10813,6.637596890625C25.493679999999998,7.024900890625,25.70701,7.551152890625,25.7,8.097592890625C25.69625,8.551342890625,25.71563,9.938222890625,25.71563,9.952592890625C25.72188,10.401342890625,25.363120000000002,10.770172890625,24.91438,10.776342890625L24.90313,10.776342890625Z" fill="#3D3D3D" fill-opacity="1"/></g><g><path d="M24.7156244140625,27.46055234375L7.0400244140625,27.46055234375C4.6194044140625,27.46055234375,2.6500244140625,25.35485234375,2.6500244140625,22.76675234375L2.6500244140625,9.74990234375C2.6500244140625,7.16177234375,4.6194044140625,5.05615234375,7.0400244140625,5.05615234375L14.0769244140625,5.05615234375C15.4875244140625,5.05615234375,16.8200244140625,5.78677734375,17.6394244140625,7.01052234375L18.7081244140625,8.60115234375C19.2150244140625,9.35553234375,20.0206244140625,9.80615234375,20.8675244140625,9.80615234375L24.7125244140625,9.80615234375C27.1331244140625,9.80615234375,29.1025244140625,11.91177234375,29.1025244140625,14.49990234375L29.1025244140625,22.76865234375C29.1056244140625,25.35485234375,27.1362244140625,27.46055234375,24.7156244140625,27.46055234375ZM7.0400244140625,6.74990234375C5.5531444140624995,6.74990234375,4.3437744140625,8.09365234375,4.3437744140625,9.74990234375L4.3437744140625,22.76865234375C4.3437744140625,24.42305234375,5.5531444140624995,25.76865234375,7.0400244140625,25.76865234375L24.7156244140625,25.76865234375C26.2025244140625,25.76865234375,27.4125244140625,24.42235234375,27.4125244140625,22.76865234375L27.4125244140625,14.49990234375C27.4125244140625,12.84552234375,26.2025244140625,11.49990234375,24.7156244140625,11.49990234375L20.8706244140625,11.49990234375C19.4606244140625,11.49990234375,18.1275244140625,10.76927234375,17.308124414062497,9.54615234375L16.239424414062498,7.95553234375C15.7325244140625,7.20053234375,14.9269244140625,6.74990234375,14.0794244140625,6.74990234375L7.0400244140625,6.74990234375Z" fill="#3D3D3D" fill-opacity="1"/></g></g></svg>