<svg xmlns="http://www.w3.org/2000/svg" xmlns:xlink="http://www.w3.org/1999/xlink" fill="none" version="1.1" width="32" height="32" viewBox="0 0 32 32"><defs><clipPath id="master_svg0_38_02025"><rect x="0" y="0" width="32" height="32" rx="0"/></clipPath></defs><g clip-path="url(#master_svg0_38_02025)"><g><path d="M15.99998544921875,2.666748285294C20.04998544921875,2.666748285294,23.33338544921875,5.950078046874999,23.33338544921875,10.000078046875C23.33338544921875,12.633078046875,21.94598544921875,14.941748046875,19.86238544921875,16.235048046875C21.61748544921875,16.765748046875,23.24378544921875,17.653748046875002,24.63898544921875,18.843448046875C25.05978544921875,19.201448046875,25.11058544921875,19.832848046875,24.75248544921875,20.253448046875C24.39428544921875,20.674148046875,23.76288544921875,20.724748046875,23.34238544921875,20.366448046875C21.29518544921875,18.619648046875,18.69108544921875,17.662248046875,15.99998544921875,17.666748046875C10.10402544921875,17.666748046875,5.20535544921875,22.187748046875,4.70802544921875,28.023448046875C4.65547544921875,28.568848046875,4.17377544921875,28.970448046875,3.62779144921875,28.923948046875C3.08181044921875,28.877448046875,2.67492844921875,28.400248046875,2.71535491921875,27.853748046875C3.18768844921875,22.312448046875,7.02935544921875,17.780448046875,12.13868544921875,16.235448046875C10.05502544921875,14.942748046875,8.66668544921875,12.633418046875,8.66668544921875,10.000078046875C8.66668544921875,5.950078046874999,11.95002544921875,2.666748046875,15.99998544921875,2.666748285294ZM28.99838544921875,22.272448046875L29.03168544921875,22.304048046875C29.42218544921875,22.672048046875,29.42218544921875,23.292848046875,29.03168544921875,23.660748046875L23.96098544921875,28.440748046875C23.76918544921875,28.621948046875,23.51338544921875,28.719748046875,23.24968544921875,28.712748046875C22.98578544921875,28.719748046875,22.72988544921875,28.621948046875,22.53798544921875,28.440748046875L19.62598544921875,25.695748046875C19.23548544921875,25.327848046875,19.23548544921875,24.707048046875,19.62598544921875,24.339048046875L19.65968544921875,24.307448046875C20.04488544921875,23.944248046875,20.64648544921875,23.944248046875,21.03168544921875,24.307448046875L23.24968544921875,26.398048046875L27.62638544921875,22.272448046875C28.01158544921875,21.909248046875,28.61308544921875,21.909248046875,28.99838544921875,22.272448046875ZM15.99998544921875,4.666748046875C13.05438544921875,4.666748046875,10.66668544921875,7.054418046875,10.66668544921875,10.000078046875C10.66668544921875,12.945748046875,13.05438544921875,15.333448046875,15.99998544921875,15.333448046875C18.94568544921875,15.333448046875,21.33338544921875,12.945748046875,21.33338544921875,10.000078046875C21.33338544921875,7.054418046875,18.94568544921875,4.666748046875,15.99998544921875,4.666748046875Z" fill="#3D3D3D" fill-opacity="1"/></g></g></svg>