<svg xmlns="http://www.w3.org/2000/svg" xmlns:xlink="http://www.w3.org/1999/xlink" fill="none" version="1.1" width="32" height="32" viewBox="0 0 32 32"><defs><clipPath id="master_svg0_38_02061"><rect x="0" y="0" width="32" height="32" rx="0"/></clipPath></defs><g clip-path="url(#master_svg0_38_02061)"><g><path d="M29.74478984375,25.50908984375C30.33178984375,25.70768984375,30.72698984375,26.25818984375,30.72728984375,26.87788984375L30.72728984375,29.10108984375C30.72648984375,29.89848984375,30.08028984375,30.54468984375,29.28298984375,30.54548984375L16.89898984375,30.54548984375C16.10158984375,30.54468984375,15.45538984375,29.89848984375,15.45458984375,29.10108984375L15.45458984375,29.09098984375L5.45458984375,29.09098984375C3.24660984375,29.08818984375,1.45739364375,27.29888984375,1.45458984375,25.09098984375L1.45458984375,5.45458984375C1.45458984375,3.24949984375,3.24949984375,1.45458984375,5.45458984375,1.45458984375L21.45458984375,1.45458984375C23.65968984375,1.45458984375,25.45458984375,3.24949984375,25.45458984375,5.45458984375L25.45458984375,15.92878984375C26.85708984375,16.76148984375,27.71768984375,18.27088984375,27.72008984375,19.90188984375C27.72008984375,21.37898984375,27.00948984375,23.07928984375,25.95128984375,24.21168984375L25.95128984375,24.22548984375L29.74478984375,25.50908984375ZM28.54548984375,28.36368984375L28.54548984375,27.40728984375L24.51058984375,26.04148984375C24.06758984375,25.89158984375,23.76948984375,25.47588984375,23.76948984375,25.00808984375L23.76948984375,23.75208984375C23.76948984375,23.43858984375,23.90478984375,23.13898984375,24.14038984375,22.93168984375C24.93748984375,22.23278984375,25.53818984375,20.93018984375,25.53818984375,19.90188984375C25.53618984375,18.55108984375,24.44168984375,17.45658984375,23.09098984375,17.45458984375C21.74018984375,17.45658984375,20.64568984375,18.55108984375,20.64368984375,19.90188984375C20.64368984375,20.93018984375,21.24438984375,22.23278984375,22.04148984375,22.93168984375C22.27708984375,23.13898984375,22.41238984375,23.43858984375,22.41238984375,23.75208984375L22.41238984375,25.00808984375C22.41248984375,25.47578984375,22.11438984375,25.89148984375,21.67128984375,26.04148984375L17.63638984375,27.40728984375L17.63638984375,28.36368984375L28.54548984375,28.36368984375ZM16.435689843749998,25.50988984375L20.23058984375,24.21168984375C19.17238984375,23.07928984375,18.46188984375,21.37898984375,18.46188984375,19.90188984375C18.46468984375,17.34648984375,20.53548984375,15.27558984375,23.09098984375,15.27278984375C23.15208984375,15.27278984375,23.21168984375,15.28008984375,23.27278984375,15.28218984375L23.27278984375,5.45458984375C23.27278984375,4.45167984375,22.45748984375,3.63640984375,21.45458984375,3.63640984375L5.45458984375,3.63640984375C4.45076984375,3.63720984375,3.63720984375,4.45076984375,3.63640984375,5.45458984375L3.63640984375,25.09098984375C3.63640984375,26.09388984375,4.45167984375,26.90908984375,5.45458984375,26.90908984375L15.45458984375,26.90908984375L15.45458984375,26.87788984375C15.45458984375,26.25898984375,15.84878984375,25.70908984375,16.435689843749998,25.50988984375ZM20.36368984375,12.00008984375C20.36368984375,12.60248984375,19.87528984375,13.09098984375,19.27278984375,13.09098984375L7.63640984375,13.09098984375C7.03432984375,13.09038984375,6.54655984375,12.60208984375,6.54655984375,12.00008984375C6.54655984375,11.39796984375,7.03432984375,10.90971984375,7.63640984375,10.90913984375L19.27278984375,10.90913984375C19.87528984375,10.90913984375,20.36368984375,11.39754984375,20.36368984375,12.00008984375ZM12.00008984375,17.45458984375C12.60248984375,17.45458984375,13.09098984375,17.94298984375,13.09098984375,18.54548984375C13.09098984375,19.14798984375,12.60248984375,19.63638984375,12.00008984375,19.63638984375L7.63640984375,19.63638984375C7.03391984375,19.63638984375,6.54549984375,19.14798984375,6.54549984375,18.54548984375C6.54549984375,17.94298984375,7.03391984375,17.45458984375,7.63640984375,17.45458984375L12.00008984375,17.45458984375Z" fill="#3D3D3D" fill-opacity="1"/></g></g></svg>