<svg xmlns="http://www.w3.org/2000/svg" xmlns:xlink="http://www.w3.org/1999/xlink" fill="none" version="1.1" width="32" height="32" viewBox="0 0 32 32"><defs><clipPath id="master_svg0_38_02058"><rect x="0" y="0" width="32" height="32" rx="0"/></clipPath></defs><g clip-path="url(#master_svg0_38_02058)"><g><path d="M25.90472453613281,3.8095703125C27.167124536132814,3.809570074081,28.190524536132813,4.8329203125,28.190524536132813,6.0952803125L28.190524536132813,25.9047703125C28.190524536132813,27.1671703125,27.167124536132814,28.1905703125,25.90472453613281,28.1905703125L6.095234536132812,28.1905703125C4.832874536132812,28.1905703125,3.8095242977138124,27.1671703125,3.8095245361328125,25.9047703125L3.8095245361328125,6.0952803125C3.8095242977138124,4.8329203125,4.832874536132812,3.809570074081,6.095234536132812,3.8095703125L25.90472453613281,3.8095703125ZM25.90472453613281,12.1905203125L6.095234536132812,12.1905203125L6.095234536132812,25.9047703125L25.90472453613281,25.9047703125L25.90472453613281,12.1905203125ZM13.714284536132812,14.0571703125C13.979424536132813,14.0573703125,14.239924536132813,14.1266703125,14.470124536132813,14.2583703125L20.542524536132813,17.7272703125C21.01722453613281,17.9985703125,21.310324536132814,18.5034703125,21.310324536132814,19.0503703125C21.310324536132814,19.597170312499998,21.01722453613281,20.1020703125,20.542524536132813,20.3733703125L14.470124536132813,23.8430703125C13.454344536132812,24.4235703125,12.190474536132813,23.6897703125,12.190474536132813,22.5196703125L12.190474536132813,15.5809703125C12.190474536132813,14.7394703125,12.872714536132813,14.0571703125,13.714284536132812,14.0571703125ZM14.476224536132813,16.8937703125L14.476224536132813,21.2061703125L18.249924536132813,19.0499703125L14.476224536132813,16.8945703125L14.476224536132813,16.8937703125ZM10.666664536132814,6.0952803125L6.095234536132812,6.0952803125L6.095234536132812,9.9048103125L10.666664536132814,9.9048103125L10.666664536132814,6.0952803125ZM19.047624536132812,6.0952803125L12.952384536132813,6.0952803125L12.952384536132813,9.9048103125L19.047624536132812,9.9048103125L19.047624536132812,6.0952803125ZM25.90472453613281,6.0952803125L21.333324536132814,6.0952803125L21.333324536132814,9.9048103125L25.90472453613281,9.9048103125L25.90472453613281,6.0952803125Z" fill="#3D3D3D" fill-opacity="1"/></g></g></svg>