<svg xmlns="http://www.w3.org/2000/svg" xmlns:xlink="http://www.w3.org/1999/xlink" fill="none" version="1.1" width="17.548389434814453" height="16" viewBox="0 0 17.548389434814453 16"><defs><clipPath id="master_svg0_29_9783"><rect x="0" y="0" width="17.548389434814453" height="16" rx="0"/></clipPath></defs><g clip-path="url(#master_svg0_29_9783)"><g><path d="M17.36628291015625,15.14488896484375L12.53928291015625,10.74378896484375C16.003382910156247,7.07778896484375,13.99698291015625,1.36893896484375,8.84113291015625,0.22147096484375C3.68526291015625,-0.92599803515625,-0.9803170898437501,3.29795896484375,0.24173091015625,8.00688896484375C1.46378291015625,12.71578896484375,7.71077291015625,14.58548896484375,11.75588291015625,11.45298896484375L16.57188291015625,15.85408896484375C16.79078291015625,16.02498896484375,17.11708291015625,16.013488964843752,17.32088291015625,15.82778896484375C17.52458291015625,15.64198896484375,17.53718291015625,15.34448896484375,17.34978291015625,15.14488896484375L17.36628291015625,15.14488896484375ZM7.14953291015625,11.98618896484375C3.82104291015625,11.98888896484375,1.12087291015625,9.53001896484375,1.11986291015625,6.49522896484375C1.11884291015625,3.46042896484375,3.81736291015625,1.0000099648437502,7.14585291015625,1.00093596484375C10.47438291015625,1.0018619648437501,13.17118291015625,3.46377896484375,13.16818291015625,6.49857896484375C13.16208291015625,9.52698896484375,10.47098291015625,11.98058896484375,7.14953291015625,11.98618896484375Z" fill="#3D3D3D" fill-opacity="1"/></g></g></svg>