<svg xmlns="http://www.w3.org/2000/svg" xmlns:xlink="http://www.w3.org/1999/xlink" fill="none"
    version="1.1" width="32" height="32" viewBox="0 0 32 32">
    <defs>
        <clipPath id="master_svg0_38_1652">
            <rect x="0" y="0" width="32" height="32" rx="0" />
        </clipPath>
    </defs>
    <g clip-path="url(#master_svg0_38_1652)">
        <g>
            <path
                d="M27.9392048828125,6.035249234375C27.3968048828125,5.528788134375,26.6209048828125,5.359372234375,25.9168048828125,5.593649234375L4.4528148828125005,12.748850234375C3.6656138828125,13.011250234375,3.1360137828125,13.688050234375,3.0736138828125,14.516850234375C3.0112137828125,15.344050234375,3.4304138828125,16.094490234375,4.1680148828125,16.472090234375003L10.286414882812501,19.611290234374998L10.286414882812501,25.900890234375C10.286414882812501,26.342490234375,10.6448148828125,26.700890234375,11.0864148828125,26.700890234375C11.5280148828125,26.700890234375,11.8864148828125,26.342490234375,11.8864148828125,25.900890234375L11.8864148828125,20.432090234375L21.4880048828125,25.358490234375C21.7792048828125,25.507290234375,22.0960048828125,25.582490234375,22.4112048828125,25.582490234375C22.6928048828125,25.582490234375,22.9760048828125,25.523290234375,23.2416048828125,25.403290234375C23.8037048828125,25.152590234375,24.2204048828125,24.658690234375,24.3728048828125,24.062490234375L28.5152048828125,8.022450234375C28.7040048828125,7.302450234375,28.4816048828125,6.542450234375,27.9392048828125,6.035249234375ZM26.9680048828125,7.622450234375L22.8256048828125,23.662490234375C22.7808048828125,23.835290234375,22.6576048828125,23.913690234375,22.5872048828125,23.944090234375C22.5168048828125,23.974490234375,22.3776048828125,24.016090234375,22.2192048828125,23.934490234375L12.6432148828125,19.020890234375003L23.5296048828125,11.526450234375C23.8940048828125,11.276410234375,23.9858048828125,10.777890234375,23.7344048828125,10.414450234375C23.4840048828125,10.050660234375,22.9860048828125,9.958940234375,22.6224048828125,10.209650234375001L11.027214882812501,18.193690234374998L4.8992148828125,15.049650234375C4.6720148828125,14.932850234375,4.6624148828125005,14.723250234375,4.6688148828125,14.638450234375C4.6752148828125,14.553650234375,4.7168148828125,14.347250234375,4.9584148828125,14.267250234375L26.4208048828125,7.113650234375C26.4704048828125,7.097650234375,26.5168048828125,7.089650234375,26.5600048828125,7.089650234375C26.7024048828125,7.089650234375,26.8032048828125,7.1664502343750005,26.8464048828125,7.206450234375C26.9024048828125,7.2560502343749995,27.0256048828125,7.4016502343749995,26.9680048828125,7.622450234375Z"
                fill="#3d3d3d" fill-opacity="1" />
        </g>
    </g>
</svg>