<svg t="1699091802936" class="icon" viewBox="0 0 1024 1024" version="1.1"
    xmlns="http://www.w3.org/2000/svg" p-id="23196" width="16" height="16">
    <path
        d="M709.376 976.384c-37.888 0-72.704-19.968-91.904-54.272L486.656 688.64c-8.192-14.848-3.072-33.536 11.776-41.728 14.848-8.192 33.536-3.072 41.728 11.776l130.816 233.472c11.52 20.48 31.744 24.832 46.848 22.272 15.104-2.816 32.512-13.824 36.352-36.864L868.352 158.72c2.816-17.664-4.096-34.816-18.432-45.568-14.08-10.752-32-12.8-48.128-5.376L140.8 454.4c-0.512 0.256-0.768 0.512-1.28 0.768-20.736 9.728-32.256 28.928-30.72 51.712 1.28 17.664 11.52 39.424 36.608 47.36 1.28 0.512 2.816 0.768 4.608 1.024l277.248 11.776 255.488-273.92c11.52-12.288 30.976-13.056 43.52-1.536 12.288 11.52 13.056 30.976 1.536 43.52l-265.216 284.16c-6.144 6.656-14.848 9.984-23.808 9.728l-292.352-12.288h-1.536c-6.4-0.512-12.288-1.792-17.92-3.584-45.056-14.08-76.288-54.272-79.616-101.888-3.072-48.128 21.76-90.624 65.28-111.104L774.144 52.992c0.512-0.256 0.768-0.512 1.28-0.768 36.608-17.152 79.36-12.544 111.872 11.776 32.256 24.32 48.384 64.256 41.984 104.192l-114.176 718.592c-7.168 45.312-40.96 79.872-86.272 87.808-6.656 1.28-13.056 1.792-19.456 1.792z"
        fill="#3d3d3d" p-id="23197"></path>
</svg>