<svg xmlns="http://www.w3.org/2000/svg" xmlns:xlink="http://www.w3.org/1999/xlink" fill="none" version="1.1" width="24" height="24" viewBox="0 0 24 24"><g><path d="M20.6603,15Q20.693,15.0567,20.722,15.1154Q20.7509,15.1741,20.776,15.2346Q20.801,15.2951,20.8221,15.3571Q20.8431,15.4191,20.8601,15.4824Q20.877,15.5456,20.8898,15.6098Q20.9025,15.674,20.9111,15.7389Q20.9196,15.8039,20.9239,15.8692Q20.9282,15.9345,20.9282,16Q20.9282,16.0655,20.9239,16.1308Q20.9196,16.1961,20.9111,16.2611Q20.9025,16.326,20.8898,16.3902Q20.877,16.4544,20.8601,16.5176Q20.8431,16.5809,20.8221,16.6429Q20.801,16.7049,20.776,16.7654Q20.7509,16.8259,20.722,16.8846Q20.693,16.9433,20.6603,17Q20.6275,17.0567,20.5911,17.1111Q20.5548,17.1656,20.5149,17.2175Q20.4751,17.2695,20.4319,17.3187Q20.3887,17.3679,20.3424,17.4142Q20.2961,17.4605,20.2469,17.5037Q20.1977,17.5468,20.1457,17.5867Q20.0938,17.6266,20.0393,17.6629Q19.9849,17.6993,19.9282,17.732Q19.8715,17.7648,19.8128,17.7937Q19.7541,17.8227,19.6936,17.8478Q19.6331,17.8728,19.5711,17.8939Q19.5091,17.9149,19.4458,17.9319Q19.3826,17.9488,19.3184,17.9616Q19.2542,17.9743,19.1893,17.9829Q19.1243,17.9914,19.059,17.9957Q18.9937,18,18.9282,18L5.0718,18Q5.00632,18,4.94099,17.9957Q4.87566,17.9914,4.81074,17.9829Q4.74583,17.9743,4.68162,17.9616Q4.6174,17.9488,4.55416,17.9319Q4.49092,17.9149,4.42892,17.8939Q4.36692,17.8728,4.30643,17.8478Q4.24594,17.8227,4.18722,17.7937Q4.1285,17.7648,4.0718,17.732Q4.0151,17.6993,3.96066,17.6629Q3.90622,17.6266,3.85427,17.5867Q3.80233,17.5469,3.75311,17.5037Q3.70388,17.4605,3.65758,17.4142Q3.61129,17.3679,3.56812,17.3187Q3.52495,17.2695,3.48509,17.2175Q3.44523,17.1656,3.40886,17.1111Q3.37248,17.0567,3.33975,17Q3.30701,16.9433,3.27805,16.8846Q3.24909,16.8259,3.22404,16.7654Q3.19898,16.7049,3.17794,16.6429Q3.15689,16.5809,3.13995,16.5176Q3.123,16.4544,3.11023,16.3902Q3.09745,16.326,3.08891,16.2611Q3.08036,16.1961,3.07608,16.1308Q3.0718,16.0655,3.0718,16Q3.0718,15.9345,3.07608,15.8692Q3.08036,15.8039,3.08891,15.7389Q3.09745,15.674,3.11023,15.6098Q3.123,15.5456,3.13995,15.4824Q3.15689,15.4191,3.17794,15.3571Q3.19898,15.2951,3.22404,15.2346Q3.24909,15.1741,3.27805,15.1154Q3.30701,15.0567,3.33975,15L10.2679,3Q10.3007,2.9433,10.3371,2.88886Q10.3734,2.83442,10.4133,2.78248Q10.4532,2.73053,10.4963,2.68131Q10.5395,2.63208,10.5858,2.58579Q10.6321,2.53949,10.6813,2.49632Q10.7305,2.45315,10.7825,2.41329Q10.8344,2.37344,10.8889,2.33706Q10.9433,2.30069,11,2.26795Q11.0567,2.23521,11.1154,2.20625Q11.1741,2.1773,11.2346,2.15224Q11.2951,2.12719,11.3571,2.10614Q11.4191,2.08509,11.4824,2.06815Q11.5456,2.0512,11.6098,2.03843Q11.674,2.02566,11.7389,2.01711Q11.8039,2.00856,11.8692,2.00428Q11.9345,2,12,2Q12.0655,2,12.1308,2.00428Q12.1961,2.00856,12.2611,2.01711Q12.326,2.02566,12.3902,2.03843Q12.4544,2.0512,12.5176,2.06815Q12.5809,2.08509,12.6429,2.10614Q12.7049,2.12719,12.7654,2.15224Q12.8259,2.1773,12.8846,2.20626Q12.9433,2.23521,13,2.26795Q13.0567,2.30069,13.1111,2.33706Q13.1656,2.37344,13.2175,2.41329Q13.2695,2.45315,13.3187,2.49632Q13.3679,2.53949,13.4142,2.58579Q13.4605,2.63208,13.5037,2.68131Q13.5468,2.73053,13.5867,2.78248Q13.6266,2.83442,13.6629,2.88886Q13.6993,2.9433,13.7321,3L20.6603,15Z" fill="#4A91EE" fill-opacity="1"/></g></svg>