<svg xmlns="http://www.w3.org/2000/svg" xmlns:xlink="http://www.w3.org/1999/xlink" fill="none" version="1.1" width="32" height="32" viewBox="0 0 32 32"><defs><clipPath id="master_svg0_38_1684"><rect x="0" y="0" width="32" height="32" rx="0"/></clipPath></defs><g clip-path="url(#master_svg0_38_1684)"><g><path d="M15.99996494140625,26C11.11100494140625,26,6.74933494140625,22.9147,2.92466794140625,16.8873C2.58053044140625,16.3458,2.58053044140625,15.65417,2.92466794140625,15.11267C6.74933494140625,9.085329999999999,11.11100494140625,6,15.99996494140625,6C20.88896494140625,6,25.25066494140625,9.085329999999999,29.07536494140625,15.11267C29.41946494140625,15.65417,29.41946494140625,16.3458,29.07536494140625,16.8873C25.25066494140625,22.9147,20.88896494140625,26,15.99996494140625,26ZM15.99996494140625,8C11.95266494140625,8,8.20433494140625,10.62033,4.74633494140625,16C8.20433494140625,21.3797,11.95266494140625,24,15.99996494140625,24C20.04736494140625,24,23.79566494140625,21.3797,27.25366494140625,16C23.79566494140625,10.62033,20.04736494140625,8,15.99996494140625,8ZM15.99996494140625,20.6667C13.39966494140625,20.6667,11.29166494140625,18.5773,11.29166494140625,16C11.29166494140625,13.42267,13.39966494140625,11.33333,15.99996494140625,11.33333C18.600364941406248,11.33333,20.70836494140625,13.42267,20.70836494140625,16C20.70836494140625,18.5773,18.600364941406248,20.6667,15.99996494140625,20.6667ZM15.99996494140625,18.6667C17.48596494140625,18.6667,18.69066494140625,17.4727,18.69066494140625,16C18.69066494140625,14.52734,17.48596494140625,13.33333,15.99996494140625,13.33333C14.51396494140625,13.33333,13.30936494140625,14.52733,13.30936494140625,16C13.30936494140625,17.4727,14.51396494140625,18.6667,15.99996494140625,18.6667Z" fill="#FFFFFF" fill-opacity="1"/></g></g></svg>